<svg width="32" height="32" viewBox="0 0 32 32" fill="none" xmlns="http://www.w3.org/2000/svg">
<rect width="32" height="32" rx="8" fill="white"/>
<path d="M16.6 21.7C17.1221 22.0916 17.8375 22.1006 18.3694 21.7224C18.9012 21.3441 19.1274 20.6654 18.9289 20.0437C18.7304 19.422 18.1526 19 17.5 19H8.5M20.125 13C20.654 12.2946 21.6031 12.0531 22.4049 12.4199C23.2068 12.7867 23.6447 13.6626 23.457 14.5241C23.2693 15.3856 22.5067 16 21.625 16H8.5M14.35 10.3C14.8721 9.90842 15.5875 9.89937 16.1193 10.2776C16.6512 10.6559 16.8774 11.3346 16.6789 11.9563C16.4804 12.578 15.9026 13 15.25 13H8.5" stroke="#0EA5E9" stroke-width="1.5" stroke-linecap="round" stroke-linejoin="round"/>
</svg>
