<svg width="16" height="16" viewBox="0 0 16 16" fill="none" xmlns="http://www.w3.org/2000/svg">
<path d="M9.404 3.70287C9.77922 3.89037 10.2208 3.89037 10.596 3.70287L13.0353 2.48287C13.2421 2.37952 13.4877 2.39071 13.6843 2.51242C13.8809 2.63414 14.0003 2.84901 14 3.0802V11.5895C13.9999 11.842 13.8572 12.0727 13.6313 12.1855L10.596 13.7035C10.2208 13.891 9.77922 13.891 9.404 13.7035L6.596 12.2995C6.22079 12.112 5.77922 12.112 5.404 12.2995L2.96467 13.5195C2.75775 13.6229 2.51202 13.6117 2.31541 13.4898C2.11881 13.3679 1.99943 13.1529 2 12.9215V4.41287C2.00014 4.16043 2.14285 3.92971 2.36867 3.81687L5.404 2.29887C5.77922 2.11137 6.22079 2.11137 6.596 2.29887L9.404 3.70287M10 3.84354V13.8435M6 2.1582V12.1582" stroke="#1A9BA1" stroke-width="1.33333" stroke-linecap="round" stroke-linejoin="round"/>
</svg>
