<svg width="32" height="32" viewBox="0 0 32 32" fill="none" xmlns="http://www.w3.org/2000/svg">
<rect width="32" height="32" rx="8" fill="white"/>
<path d="M9.99964 17.4981C9.70995 17.4991 9.44559 17.3331 9.32055 17.0718C9.1955 16.8105 9.23213 16.5005 9.41464 16.2756L16.8396 8.62556C16.9543 8.49315 17.1455 8.45781 17.2999 8.54044C17.4544 8.62307 17.5311 8.80165 17.4846 8.97056L16.0446 13.4856C15.9584 13.7162 15.991 13.9745 16.1317 14.1766C16.2724 14.3787 16.5034 14.4989 16.7496 14.4981H21.9996C22.2893 14.4971 22.5537 14.663 22.6787 14.9243C22.8038 15.1856 22.7671 15.4956 22.5846 15.7206L15.1596 23.3706C15.0449 23.503 14.8538 23.5383 14.6993 23.4557C14.5449 23.3731 14.4682 23.1945 14.5146 23.0256L15.9546 18.5106C16.0408 18.2799 16.0083 18.0216 15.8676 17.8195C15.7269 17.6174 15.4959 17.4973 15.2496 17.4981H9.99964" stroke="#EAD308" stroke-width="1.5" stroke-linecap="round" stroke-linejoin="round"/>
</svg>
