<svg width="46" height="45" viewBox="0 0 46 45" fill="none" xmlns="http://www.w3.org/2000/svg">
<path fill-rule="evenodd" clip-rule="evenodd" d="M35.4181 0C35.3763 5.93788 34.1009 15.8716 30.006 20.0254C25.621 24.4733 19.6142 24.5713 14.7433 24.5713C11.5395 27.256 8.79082 37.8127 7.81658 42.7559C9.63427 40.6786 10.8822 39.798 11.2795 39.6172C10.1538 33.2959 15.5012 29.0336 18.3156 27.3857C27.841 21.8085 39.8202 25.4017 45.0519 28.3604C38.2976 35.894 29.8977 40.8802 26.5422 42.4316C19.8748 45.4622 14.0229 42.3957 11.9299 40.4834C11.4969 40.6566 9.15096 43.4414 8.0324 44.8125L6.19255 43.5137L7.05876 39.6172C7.75153 34.2483 6.1923 27.8548 5.32634 25.3291C-3.59283 18.5747 0.671816 7.79329 3.91912 3.24707C16.4754 14.9374 6.84228 25.0044 7.05876 25.3291C7.2324 25.5917 8.28521 31.0671 8.79021 33.7725C9.56956 30.3953 12.3624 25.7981 13.6613 23.9219C10.3866 15.9118 13.4242 8.6323 19.0734 4.5459C24.0526 0.432806 31.8668 0.985562 35.4181 0ZM40.1789 27.8184C23.0302 27.9054 14.9744 34.4577 13.0666 37.8916C12.9507 38.1005 13.0258 38.3633 13.2345 38.4795C13.4435 38.5956 13.7073 38.5205 13.8234 38.3115C15.5241 35.2507 23.2141 28.7708 40.1828 28.6846C40.4219 28.6834 40.6156 28.4881 40.6144 28.249C40.6131 28.01 40.4179 27.8172 40.1789 27.8184ZM31.631 3.17871C31.4732 2.99933 31.1993 2.98115 31.0197 3.13867C28.002 5.79283 20.9102 13.1144 16.634 21.2305C16.5225 21.442 16.6041 21.7039 16.8156 21.8154C17.0271 21.9268 17.2891 21.8463 17.4006 21.6348C21.6105 13.6444 28.6192 6.40282 31.591 3.78906C31.7703 3.63128 31.7885 3.35826 31.631 3.17871ZM3.73162 6.62598C3.50484 6.55042 3.25945 6.6727 3.18376 6.89941C2.92266 7.68272 2.82916 8.75856 2.83415 9.9502C2.83921 11.1518 2.94582 12.5111 3.10564 13.8818C3.42531 16.6235 3.96393 19.4426 4.36345 21.2041C4.41639 21.4372 4.64793 21.583 4.88103 21.5303C5.11416 21.4774 5.26004 21.2458 5.2072 21.0127C4.81294 19.2744 4.28037 16.486 3.96501 13.7812C3.80736 12.429 3.70526 11.105 3.70037 9.94727C3.69546 8.77961 3.79091 7.81927 4.00603 7.17383C4.08164 6.947 3.95842 6.70162 3.73162 6.62598Z" fill="#EEF7DD"/>
</svg>
