<svg width="46" height="45" viewBox="0 0 46 45" fill="none" xmlns="http://www.w3.org/2000/svg">
<path fill-rule="evenodd" clip-rule="evenodd" d="M9.6338 0C9.67562 5.93788 10.951 15.8716 15.0459 20.0254C19.4309 24.4733 25.4377 24.5713 30.3086 24.5713C33.5124 27.256 36.2611 37.8127 37.2354 42.7559C35.4177 40.6786 34.1698 39.798 33.7725 39.6172C34.8981 33.2959 29.5507 29.0336 26.7363 27.3857C17.2109 21.8085 5.23178 25.4017 1.14441e-05 28.3604C6.75437 35.894 15.1543 40.8802 18.5098 42.4316C25.1771 45.4622 31.0291 42.3957 33.1221 40.4834C33.555 40.6566 35.901 43.4414 37.0195 44.8125L38.8594 43.5137L37.9932 39.6172C37.3004 34.2483 38.8596 27.8548 39.7256 25.3291C48.6448 18.5747 44.3801 7.79329 41.1328 3.24707C28.5766 14.9374 38.2097 25.0044 37.9932 25.3291C37.8195 25.5917 36.7667 31.0671 36.2617 33.7725C35.4824 30.3953 32.6896 25.7981 31.3906 23.9219C34.6653 15.9118 31.6277 8.6323 25.9785 4.5459C20.9994 0.432806 13.1852 0.985562 9.6338 0ZM4.87306 27.8184C22.0217 27.9054 30.0776 34.4577 31.9854 37.8916C32.1012 38.1005 32.0261 38.3633 31.8174 38.4795C31.6084 38.5956 31.3447 38.5205 31.2285 38.3115C29.5278 35.2507 21.8378 28.7708 4.86915 28.6846C4.63006 28.6834 4.43634 28.4881 4.43751 28.249C4.43883 28.01 4.63404 27.8172 4.87306 27.8184ZM13.4209 3.17871C13.5787 2.99933 13.8527 2.98115 14.0322 3.13867C17.05 5.79283 24.1417 13.1144 28.418 21.2305C28.5294 21.442 28.4479 21.7039 28.2363 21.8154C28.0248 21.9268 27.7629 21.8463 27.6514 21.6348C23.4414 13.6444 16.4327 6.40282 13.461 3.78906C13.2816 3.63128 13.2635 3.35826 13.4209 3.17871ZM41.3203 6.62598C41.5471 6.55042 41.7925 6.6727 41.8682 6.89941C42.1293 7.68272 42.2228 8.75856 42.2178 9.9502C42.2127 11.1518 42.1061 12.5111 41.9463 13.8818C41.6266 16.6235 41.088 19.4426 40.6885 21.2041C40.6356 21.4372 40.404 21.583 40.1709 21.5303C39.9378 21.4774 39.7919 21.2458 39.8447 21.0127C40.239 19.2744 40.7716 16.486 41.0869 13.7812C41.2446 12.429 41.3467 11.105 41.3516 9.94727C41.3565 8.77961 41.261 7.81927 41.0459 7.17383C40.9703 6.947 41.0935 6.70162 41.3203 6.62598Z" fill="#DFF0DF"/>
</svg>
