<svg width="36" height="36" viewBox="0 0 36 36" fill="none" xmlns="http://www.w3.org/2000/svg">
<rect width="36" height="36" rx="8" fill="#F4ECFB"/>
<path d="M13.9993 11.332H21.9993C22.7352 11.332 23.3327 11.9295 23.3327 12.6654V23.332C23.3327 24.0679 22.7352 24.6654 21.9993 24.6654H13.9993C13.2635 24.6654 12.666 24.0679 12.666 23.332V12.6654C12.666 11.9295 13.2635 11.332 13.9993 11.332V11.332" stroke="#8B5CF6" stroke-width="1.33333" stroke-linecap="round" stroke-linejoin="round"/>
<path d="M15.333 14H20.6663M20.6663 19.3333V22M20.6663 16.6667H20.673M17.9997 16.6667H18.0063M15.333 16.6667H15.3397M17.9997 19.3333H18.0063M15.333 19.3333H15.3397M17.9997 22H18.0063M15.333 22H15.3397" stroke="#8B5CF6" stroke-width="1.33333" stroke-linecap="round" stroke-linejoin="round"/>
</svg>
