<svg width="16" height="16" viewBox="0 0 16 16" fill="none" xmlns="http://www.w3.org/2000/svg">
<path d="M1.3331 8.00065C1.3331 11.6801 4.32033 14.6673 7.99977 14.6673C11.6792 14.6673 14.6664 11.6801 14.6664 8.00065C14.6664 4.32122 11.6792 1.33398 7.99977 1.33398C4.32033 1.33398 1.3331 4.32122 1.3331 8.00065V8.00065" stroke="#1A9BA1" stroke-width="1.33333" stroke-linecap="round" stroke-linejoin="round"/>
<path d="M4 8C4 10.2077 5.79234 12 8 12C10.2077 12 12 10.2077 12 8C12 5.79234 10.2077 4 8 4C5.79234 4 4 5.79234 4 8H4" stroke="#1A9BA1" stroke-width="1.33333" stroke-linecap="round" stroke-linejoin="round"/>
<path d="M6.66602 8.0013C6.66602 8.73719 7.26346 9.33464 7.99935 9.33464C8.73524 9.33464 9.33268 8.73719 9.33268 8.0013C9.33268 7.26542 8.73524 6.66797 7.99935 6.66797C7.26346 6.66797 6.66602 7.26542 6.66602 8.0013V8.0013" stroke="#1A9BA1" stroke-width="1.33333" stroke-linecap="round" stroke-linejoin="round"/>
</svg>
