<svg width="32" height="32" viewBox="0 0 32 32" fill="none" xmlns="http://www.w3.org/2000/svg">
<rect width="32" height="32" rx="8" fill="white"/>
<g clip-path="url(#clip0_1_394)">
<path d="M8.87526 23.1233L9.92526 22.0733M9.92526 22.0733L11.0075 23.1121C11.5928 23.6976 12.5434 23.6977 13.1289 23.1124C13.7144 22.5271 13.7146 21.5766 13.1293 20.9911L14.4545 22.3171C14.8335 22.6961 15.3859 22.8441 15.9037 22.7054C16.4214 22.5666 16.8258 22.1622 16.9646 21.6445C17.1033 21.1267 16.9553 20.5743 16.5763 20.1953L11.8033 15.4223C11.4242 15.0433 10.8718 14.8953 10.3541 15.034C9.83634 15.1727 9.43193 15.5771 9.2932 16.0949C9.15447 16.6126 9.3025 17.165 9.68151 17.5441L11.0075 18.8693C10.422 18.284 9.47144 18.2842 8.88614 18.8697C8.30083 19.4552 8.301 20.4058 8.88651 20.9911L9.92526 22.0733ZM22.0753 9.92331L23.1253 8.87331M14.2003 17.7983L17.8003 14.1983M20.1973 16.5743C20.5763 16.9533 21.1287 17.1013 21.6464 16.9626C22.1642 16.8239 22.5686 16.4195 22.7073 15.9017C22.846 15.384 22.698 14.8316 22.319 14.4526L20.993 13.1273C21.5789 13.713 22.5287 13.7128 23.1144 13.1269C23.7001 12.541 23.6999 11.5913 23.114 11.0056L20.993 8.88456C20.4077 8.29904 19.4571 8.29888 18.8716 8.88418C18.2861 9.46949 18.286 10.42 18.8713 11.0056L17.546 9.67956C17.167 9.30054 16.6146 9.15252 16.0968 9.29125C15.5791 9.42998 15.1747 9.83438 15.036 10.3521C14.8972 10.8699 15.0452 11.4223 15.4243 11.8013L20.1973 16.5743Z" stroke="#8B5CF6" stroke-width="1.5" stroke-linecap="round" stroke-linejoin="round"/>
</g>
<defs>
<clipPath id="clip0_1_394">
<rect width="18" height="18" fill="white" transform="translate(7 7)"/>
</clipPath>
</defs>
</svg>
