<svg width="32" height="32" viewBox="0 0 32 32" fill="none" xmlns="http://www.w3.org/2000/svg">
<rect width="32" height="32" rx="6" fill="#EF5350" fill-opacity="0.12"/>
<path d="M16.8333 13.5H21.4166L16.8333 8.91663V13.5ZM10.9999 7.66663H17.6666L22.6666 12.6666V22.6666C22.6666 23.1087 22.491 23.5326 22.1784 23.8451C21.8659 24.1577 21.4419 24.3333 20.9999 24.3333H10.9999C10.5579 24.3333 10.134 24.1577 9.82141 23.8451C9.50885 23.5326 9.33325 23.1087 9.33325 22.6666V9.33329C9.33325 8.89127 9.50885 8.46734 9.82141 8.15478C10.134 7.84222 10.5579 7.66663 10.9999 7.66663ZM15.1083 16.3666C15.4499 17.1166 15.8833 17.7333 16.3833 18.1583L16.7249 18.425C15.9999 18.5583 14.9999 18.7916 13.9416 19.2L13.8499 19.2333L14.2666 18.3666C14.6416 17.6416 14.9166 16.9833 15.1083 16.3666ZM20.5083 19.5416C20.6583 19.3916 20.7333 19.2 20.7416 18.9916C20.7666 18.825 20.7249 18.6666 20.6416 18.5333C20.3999 18.1416 19.7749 17.9583 18.7416 17.9583L17.6666 18.0166L16.9416 17.5333C16.4166 17.1 15.9416 16.3416 15.6083 15.4L15.6416 15.2833C15.9166 14.175 16.1749 12.8333 15.6249 12.2833C15.5576 12.218 15.4781 12.1667 15.3908 12.1323C15.3035 12.098 15.2103 12.0813 15.1166 12.0833H14.9166C14.6083 12.0833 14.3333 12.4083 14.2583 12.725C13.9499 13.8333 14.1333 14.4416 14.4416 15.45V15.4583C14.2333 16.1916 13.9666 17.0416 13.5416 17.9L12.7416 19.4L11.9999 19.8083C10.9999 20.4333 10.5249 21.1333 10.4333 21.575C10.3999 21.7333 10.4166 21.875 10.4749 22.025L10.4999 22.0666L10.8999 22.325L11.2666 22.4166C11.9416 22.4166 12.7083 21.625 13.7416 19.8583L13.8916 19.8C14.7499 19.525 15.8166 19.3333 17.2499 19.175C18.1083 19.6 19.1166 19.7916 19.7499 19.7916C20.1166 19.7916 20.3666 19.7 20.5083 19.5416ZM20.1666 18.95L20.2416 19.0416C20.2333 19.125 20.2083 19.1333 20.1666 19.15H20.1333L19.9749 19.1666C19.5916 19.1666 18.9999 19.0083 18.3916 18.7416C18.4666 18.6583 18.4999 18.6583 18.5833 18.6583C19.7499 18.6583 20.0833 18.8666 20.1666 18.95ZM12.5249 20.1666C11.9833 21.1583 11.4916 21.7083 11.1166 21.8333C11.1583 21.5166 11.5333 20.9666 12.1249 20.425L12.5249 20.1666ZM15.0416 14.4083C14.8499 13.6583 14.8416 13.05 14.9833 12.7L15.0416 12.6L15.1666 12.6416C15.3083 12.8416 15.3249 13.1083 15.2416 13.5583L15.2166 13.6916L15.0833 14.375L15.0416 14.4083Z" fill="#EF5350"/>
</svg>
