<svg width="20" height="20" viewBox="0 0 20 20" fill="none" xmlns="http://www.w3.org/2000/svg">
<path d="M9.99935 5.83333V17.5M9.99935 5.83333C9.99935 3.99238 8.50696 2.5 6.66602 2.5H2.49935C2.03911 2.5 1.66602 2.8731 1.66602 3.33333V14.1667C1.66602 14.6269 2.03911 15 2.49935 15H7.49935C8.88006 15 9.99935 16.1193 9.99935 17.5M9.99935 5.83333C9.99935 3.99238 11.4917 2.5 13.3327 2.5H17.4993C17.9596 2.5 18.3327 2.8731 18.3327 3.33333V14.1667C18.3327 14.6269 17.9596 15 17.4993 15H12.4993C11.1186 15 9.99935 16.1193 9.99935 17.5" stroke="#D97706" stroke-width="1.66667" stroke-linecap="round" stroke-linejoin="round"/>
</svg>
