<svg width="18" height="18" viewBox="0 0 18 18" fill="none" xmlns="http://www.w3.org/2000/svg">
<path d="M8.26259 2.11223C8.32889 1.75727 8.63873 1.49994 8.99984 1.49994C9.36095 1.49994 9.67079 1.75727 9.73709 2.11223L10.5253 6.28074C10.6399 6.88725 11.1143 7.36166 11.7208 7.47623L15.8893 8.26448C16.2443 8.33079 16.5016 8.64063 16.5016 9.00173C16.5016 9.36284 16.2443 9.67268 15.8893 9.73899L11.7208 10.5272C11.1143 10.6418 10.6399 11.1162 10.5253 11.7227L9.73709 15.8912C9.67079 16.2462 9.36095 16.5035 8.99984 16.5035C8.63873 16.5035 8.32889 16.2462 8.26259 15.8912L7.47434 11.7227C7.35977 11.1162 6.88536 10.6418 6.27884 10.5272L2.11034 9.73899C1.75537 9.67268 1.49805 9.36284 1.49805 9.00173C1.49805 8.64063 1.75537 8.33079 2.11034 8.26448L6.27884 7.47623C6.88536 7.36166 7.35977 6.88725 7.47434 6.28074L8.26259 2.11223M14.9998 1.50173V4.50173M16.4998 3.00173H13.4998" stroke="#10B981" stroke-width="1.5" stroke-linecap="round" stroke-linejoin="round"/>
<path d="M1.5 15C1.5 15.8279 2.17213 16.5 3 16.5C3.82787 16.5 4.5 15.8279 4.5 15C4.5 14.1721 3.82787 13.5 3 13.5C2.17213 13.5 1.5 14.1721 1.5 15H1.5" stroke="#10B981" stroke-width="1.5" stroke-linecap="round" stroke-linejoin="round"/>
</svg>
