<svg width="32" height="32" viewBox="0 0 32 32" fill="none" xmlns="http://www.w3.org/2000/svg">
<rect width="32" height="32" rx="8" fill="white"/>
<path d="M15.9996 10.7488C16.0021 9.93221 15.5618 9.17841 14.8494 8.77927C14.137 8.38013 13.2642 8.39832 12.5691 8.8268C11.8739 9.25528 11.4655 10.0268 11.5019 10.8426C10.6086 11.0722 9.87066 11.7001 9.50078 12.545C9.1309 13.3899 9.17022 14.3579 9.6074 15.1701C8.83717 15.7958 8.42622 16.762 8.50967 17.7508C8.59313 18.7397 9.16019 19.6233 10.0244 20.1111C9.88116 21.2193 10.3658 22.3153 11.2819 22.9552C12.1981 23.595 13.3939 23.6726 14.3851 23.1565C15.3763 22.6405 15.9985 21.6163 15.9996 20.4988V10.7488" stroke="#EC4899" stroke-width="1.5" stroke-linecap="round" stroke-linejoin="round"/>
<path d="M13.7497 16.75C15.0373 16.297 15.9254 15.113 15.9997 13.75M11.5019 10.8438C11.5168 11.2066 11.6192 11.5604 11.8004 11.875M9.60742 15.172C9.74463 15.0603 9.89145 14.9609 10.0462 14.875M11.4997 20.5C10.9828 20.5002 10.4746 20.3669 10.0244 20.113M15.9997 16.75H18.9997M15.9997 20.5H20.4997C21.3275 20.5 21.9997 21.1721 21.9997 22V22.75M15.9997 13H21.9997M18.9997 13V10.75C18.9997 9.92213 19.6718 9.25 20.4997 9.25" stroke="#EC4899" stroke-width="1.5" stroke-linecap="round" stroke-linejoin="round"/>
<path d="M18.625 16.75C18.625 16.957 18.793 17.125 19 17.125C19.207 17.125 19.375 16.957 19.375 16.75C19.375 16.543 19.207 16.375 19 16.375C18.793 16.375 18.625 16.543 18.625 16.75V16.75" stroke="#EC4899" stroke-width="1.5" stroke-linecap="round" stroke-linejoin="round"/>
<path d="M20.125 9.25C20.125 9.45697 20.293 9.625 20.5 9.625C20.707 9.625 20.875 9.45697 20.875 9.25C20.875 9.04303 20.707 8.875 20.5 8.875C20.293 8.875 20.125 9.04303 20.125 9.25V9.25" stroke="#EC4899" stroke-width="1.5" stroke-linecap="round" stroke-linejoin="round"/>
<path d="M21.625 22.75C21.625 22.957 21.793 23.125 22 23.125C22.207 23.125 22.375 22.957 22.375 22.75C22.375 22.543 22.207 22.375 22 22.375C21.793 22.375 21.625 22.543 21.625 22.75V22.75" stroke="#EC4899" stroke-width="1.5" stroke-linecap="round" stroke-linejoin="round"/>
<path d="M21.625 13C21.625 13.207 21.793 13.375 22 13.375C22.207 13.375 22.375 13.207 22.375 13C22.375 12.793 22.207 12.625 22 12.625C21.793 12.625 21.625 12.793 21.625 13V13" stroke="#EC4899" stroke-width="1.5" stroke-linecap="round" stroke-linejoin="round"/>
</svg>
