<svg width="16" height="16" viewBox="0 0 16 16" fill="none" xmlns="http://www.w3.org/2000/svg">
<path d="M7.33398 7.99967C7.33398 8.36762 7.63271 8.66634 8.00065 8.66634C8.36859 8.66634 8.66732 8.36762 8.66732 7.99967C8.66732 7.63173 8.36859 7.33301 8.00065 7.33301C7.63271 7.33301 7.33398 7.63173 7.33398 7.99967V7.99967" stroke="#9CA3AF" stroke-width="1.33333" stroke-linecap="round" stroke-linejoin="round"/>
<path d="M7.33382 3.33274C7.33382 3.70069 7.63254 3.99941 8.00048 3.99941C8.36843 3.99941 8.66715 3.70069 8.66715 3.33274C8.66715 2.9648 8.36843 2.66608 8.00048 2.66608C7.63254 2.66608 7.33382 2.9648 7.33382 3.33274V3.33274" stroke="#9CA3AF" stroke-width="1.33333" stroke-linecap="round" stroke-linejoin="round"/>
<path d="M7.33398 12.6657C7.33398 13.0336 7.63271 13.3324 8.00065 13.3324C8.36859 13.3324 8.66732 13.0336 8.66732 12.6657C8.66732 12.2977 8.36859 11.999 8.00065 11.999C7.63271 11.999 7.33398 12.2977 7.33398 12.6657V12.6657" stroke="#9CA3AF" stroke-width="1.33333" stroke-linecap="round" stroke-linejoin="round"/>
</svg>
