<svg width="16" height="16" viewBox="0 0 16 16" fill="none" xmlns="http://www.w3.org/2000/svg">
<path d="M1.3335 7.9987C1.3335 11.6781 4.32073 14.6654 8.00016 14.6654C11.6796 14.6654 14.6668 11.6781 14.6668 7.9987C14.6668 4.31926 11.6796 1.33203 8.00016 1.33203C4.32073 1.33203 1.3335 4.31926 1.3335 7.9987V7.9987" stroke="#EC4899" stroke-width="1.33333" stroke-linecap="round" stroke-linejoin="round"/>
<path d="M4 8C4 10.2077 5.79234 12 8 12C10.2077 12 12 10.2077 12 8C12 5.79234 10.2077 4 8 4C5.79234 4 4 5.79234 4 8H4" stroke="#EC4899" stroke-width="1.33333" stroke-linecap="round" stroke-linejoin="round"/>
<path d="M6.6665 7.99935C6.6665 8.73524 7.26395 9.33268 7.99984 9.33268C8.73572 9.33268 9.33317 8.73524 9.33317 7.99935C9.33317 7.26346 8.73572 6.66602 7.99984 6.66602C7.26395 6.66602 6.6665 7.26346 6.6665 7.99935V7.99935" stroke="#EC4899" stroke-width="1.33333" stroke-linecap="round" stroke-linejoin="round"/>
</svg>
