<svg width="32" height="32" viewBox="0 0 32 32" fill="none" xmlns="http://www.w3.org/2000/svg">
<rect width="32" height="32" rx="8" fill="#FFF2DE"/>
<path d="M8.5 14.1256C8.50003 12.417 9.55333 10.8853 11.1487 10.2739C12.7441 9.6624 14.5513 10.0977 15.6933 11.3686C15.7727 11.4535 15.8837 11.5017 16 11.5017C16.1163 11.5017 16.2273 11.4535 16.3067 11.3686C17.4453 10.0892 19.257 9.64825 20.8562 10.2612C22.4554 10.8741 23.5082 12.413 23.5 14.1256C23.5 15.8431 22.375 17.1256 21.25 18.2506L17.131 22.2353C16.8483 22.56 16.4397 22.7476 16.0092 22.7503C15.5787 22.753 15.1678 22.5707 14.881 22.2496L10.75 18.2506C9.625 17.1256 8.5 15.8506 8.5 14.1256" stroke="#F59E0B" stroke-width="1.5" stroke-linecap="round" stroke-linejoin="round"/>
<path d="M9.41504 16.75H14.125L14.5 16L16 19.375L17.5 14.125L18.625 16.75H22.5775" stroke="#F59E0B" stroke-width="1.5" stroke-linecap="round" stroke-linejoin="round"/>
</svg>
