<svg width="32" height="32" viewBox="0 0 32 32" fill="none" xmlns="http://www.w3.org/2000/svg">
<rect width="32" height="32" rx="6" fill="#FF0000" fill-opacity="0.1"/>
<g clip-path="url(#clip0_1_1029)">
<path d="M23.6453 12.1306C23.5535 11.7915 23.3746 11.4823 23.1262 11.2339C22.8778 10.9855 22.5686 10.8065 22.2296 10.7148C20.9882 10.3762 15.992 10.3762 15.992 10.3762C15.992 10.3762 10.9956 10.3865 9.75425 10.725C9.41516 10.8168 9.10603 10.9958 8.85764 11.2442C8.60925 11.4926 8.43028 11.8018 8.33853 12.1409C7.96304 14.3466 7.81738 17.7075 8.34884 19.825C8.4406 20.1641 8.61958 20.4732 8.86797 20.7216C9.11636 20.97 9.42548 21.149 9.76456 21.2408C11.0059 21.5793 16.0022 21.5793 16.0022 21.5793C16.0022 21.5793 20.9984 21.5793 22.2398 21.2408C22.5788 21.149 22.888 20.97 23.1364 20.7216C23.3848 20.4732 23.5638 20.1641 23.6555 19.825C24.0516 17.6162 24.1736 14.2573 23.6453 12.1306Z" fill="#FF0000"/>
<path d="M14.4016 18.3783L18.5463 15.9777L14.4016 13.577V18.3783Z" fill="white"/>
</g>
<defs>
<clipPath id="clip0_1_1029">
<rect width="16" height="11.2478" fill="white" transform="translate(8 10.3761)"/>
</clipPath>
</defs>
</svg>
